<svg width="1400" height="900" viewBox="0 0 1400 900" xmlns="http://www.w3.org/2000/svg" font-family="'Segoe UI', system-ui, -apple-system, sans-serif">
  <defs>
    <!-- Background gradient -->
    <linearGradient id="bgGrad" x1="0%" y1="0%" x2="100%" y2="100%">
      <stop offset="0%" style="stop-color:#0f0f1a;stop-opacity:1" />
      <stop offset="50%" style="stop-color:#131525;stop-opacity:1" />
      <stop offset="100%" style="stop-color:#0d1117;stop-opacity:1" />
    </linearGradient>

    <!-- Grid pattern -->
    <pattern id="grid" width="40" height="40" patternUnits="userSpaceOnUse">
      <path d="M 40 0 L 0 0 0 40" fill="none" stroke="#ffffff08" stroke-width="0.5"/>
    </pattern>

    <!-- Card gradients -->
    <linearGradient id="clientGrad" x1="0%" y1="0%" x2="100%" y2="100%">
      <stop offset="0%" style="stop-color:#1e2d5a;stop-opacity:1" />
      <stop offset="100%" style="stop-color:#162347;stop-opacity:1" />
    </linearGradient>
    <linearGradient id="firebaseGrad" x1="0%" y1="0%" x2="100%" y2="100%">
      <stop offset="0%" style="stop-color:#2a1f0e;stop-opacity:1" />
      <stop offset="100%" style="stop-color:#1e1508;stop-opacity:1" />
    </linearGradient>
    <linearGradient id="aiGrad" x1="0%" y1="0%" x2="100%" y2="100%">
      <stop offset="0%" style="stop-color:#1a0f2e;stop-opacity:1" />
      <stop offset="100%" style="stop-color:#120a22;stop-opacity:1" />
    </linearGradient>
    <linearGradient id="vercelGrad" x1="0%" y1="0%" x2="100%" y2="100%">
      <stop offset="0%" style="stop-color:#1a1a2e;stop-opacity:1" />
      <stop offset="100%" style="stop-color:#12121f;stop-opacity:1" />
    </linearGradient>
    <linearGradient id="mongoGrad" x1="0%" y1="0%" x2="100%" y2="100%">
      <stop offset="0%" style="stop-color:#0a1f0a;stop-opacity:1" />
      <stop offset="100%" style="stop-color:#061506;stop-opacity:1" />
    </linearGradient>

    <!-- Glow filters -->
    <filter id="glowBlue" x="-30%" y="-30%" width="160%" height="160%">
      <feGaussianBlur stdDeviation="6" result="coloredBlur"/>
      <feMerge><feMergeNode in="coloredBlur"/><feMergeNode in="SourceGraphic"/></feMerge>
    </filter>
    <filter id="glowOrange" x="-30%" y="-30%" width="160%" height="160%">
      <feGaussianBlur stdDeviation="5" result="coloredBlur"/>
      <feMerge><feMergeNode in="coloredBlur"/><feMergeNode in="SourceGraphic"/></feMerge>
    </filter>
    <filter id="glowPurple" x="-30%" y="-30%" width="160%" height="160%">
      <feGaussianBlur stdDeviation="5" result="coloredBlur"/>
      <feMerge><feMergeNode in="coloredBlur"/><feMergeNode in="SourceGraphic"/></feMerge>
    </filter>
    <filter id="glowGreen" x="-30%" y="-30%" width="160%" height="160%">
      <feGaussianBlur stdDeviation="5" result="coloredBlur"/>
      <feMerge><feMergeNode in="coloredBlur"/><feMergeNode in="SourceGraphic"/></feMerge>
    </filter>
    <filter id="softShadow">
      <feDropShadow dx="0" dy="4" stdDeviation="12" flood-color="#000000" flood-opacity="0.5"/>
    </filter>
    <filter id="iconGlow">
      <feGaussianBlur stdDeviation="3" result="coloredBlur"/>
      <feMerge><feMergeNode in="coloredBlur"/><feMergeNode in="SourceGraphic"/></feMerge>
    </filter>

    <!-- Arrow markers -->
    <marker id="arrowBlue" markerWidth="8" markerHeight="8" refX="6" refY="3" orient="auto">
      <path d="M0,0 L0,6 L8,3 z" fill="#4f8ef7" opacity="0.9"/>
    </marker>
    <marker id="arrowOrange" markerWidth="8" markerHeight="8" refX="6" refY="3" orient="auto">
      <path d="M0,0 L0,6 L8,3 z" fill="#ff9500" opacity="0.9"/>
    </marker>
    <marker id="arrowPurple" markerWidth="8" markerHeight="8" refX="6" refY="3" orient="auto">
      <path d="M0,0 L0,6 L8,3 z" fill="#a855f7" opacity="0.9"/>
    </marker>
    <marker id="arrowGreen" markerWidth="8" markerHeight="8" refX="6" refY="3" orient="auto">
      <path d="M0,0 L0,6 L8,3 z" fill="#4ade80" opacity="0.9"/>
    </marker>
    <marker id="arrowWhite" markerWidth="8" markerHeight="8" refX="6" refY="3" orient="auto">
      <path d="M0,0 L0,6 L8,3 z" fill="#ffffff60" opacity="0.9"/>
    </marker>
    <marker id="arrowBlueBi" markerWidth="8" markerHeight="8" refX="2" refY="3" orient="auto">
      <path d="M8,0 L8,6 L0,3 z" fill="#4f8ef7" opacity="0.9"/>
    </marker>
  </defs>

  <!-- Background -->
  <rect width="1400" height="900" fill="url(#bgGrad)"/>
  <rect width="1400" height="900" fill="url(#grid)"/>

  <!-- Subtle ambient glows -->
  <ellipse cx="300" cy="200" rx="250" ry="150" fill="#4f8ef710" filter="url(#glowBlue)"/>
  <ellipse cx="1100" cy="650" rx="200" ry="120" fill="#ff950010" filter="url(#glowOrange)"/>
  <ellipse cx="700" cy="450" rx="180" ry="100" fill="#a855f708"/>

  <!-- ===== TITLE ===== -->
  <text x="700" y="46" text-anchor="middle" font-size="13" font-weight="600" letter-spacing="4" fill="#ffffff30" font-family="'Segoe UI', sans-serif">SYSTEM ARCHITECTURE</text>
  <text x="700" y="78" text-anchor="middle" font-size="28" font-weight="700" fill="#ffffff" font-family="'Segoe UI', sans-serif" letter-spacing="-0.5">PickPulse · Dark Store Platform</text>
  <line x1="560" y1="92" x2="840" y2="92" stroke="#ffffff15" stroke-width="1"/>

  <!-- ============================== -->
  <!-- LAYER 1: CLIENT / FRONTEND     -->
  <!-- ============================== -->
  <!-- Card -->
  <rect x="60" y="120" width="360" height="260" rx="16" fill="url(#clientGrad)" stroke="#4f8ef730" stroke-width="1.5" filter="url(#softShadow)"/>
  <rect x="60" y="120" width="360" height="4" rx="2" fill="#4f8ef7" opacity="0.8"/>

  <!-- Label -->
  <text x="240" y="148" text-anchor="middle" font-size="10" font-weight="700" letter-spacing="3" fill="#4f8ef7cc" font-family="'Segoe UI', sans-serif">CLIENT · LAYER</text>
  <text x="240" y="168" text-anchor="middle" font-size="17" font-weight="700" fill="#e8eeff" font-family="'Segoe UI', sans-serif">Frontend Application</text>

  <!-- React icon (stylized atom) -->
  <g transform="translate(90, 190)" filter="url(#iconGlow)">
    <circle cx="24" cy="24" r="4" fill="#61DAFB"/>
    <ellipse cx="24" cy="24" rx="20" ry="8" fill="none" stroke="#61DAFB" stroke-width="2" opacity="0.9"/>
    <ellipse cx="24" cy="24" rx="20" ry="8" fill="none" stroke="#61DAFB" stroke-width="2" opacity="0.9" transform="rotate(60 24 24)"/>
    <ellipse cx="24" cy="24" rx="20" ry="8" fill="none" stroke="#61DAFB" stroke-width="2" opacity="0.9" transform="rotate(120 24 24)"/>
    <text x="24" y="62" text-anchor="middle" font-size="9" font-weight="700" fill="#61DAFB" font-family="'Segoe UI', sans-serif">React 19</text>
  </g>

  <!-- TypeScript icon -->
  <g transform="translate(175, 190)">
    <rect x="2" y="2" width="44" height="44" rx="6" fill="#3178C6"/>
    <text x="24" y="32" text-anchor="middle" font-size="20" font-weight="800" fill="white" font-family="'Segoe UI', sans-serif">TS</text>
    <text x="24" y="62" text-anchor="middle" font-size="9" font-weight="700" fill="#3178C6cc" font-family="'Segoe UI', sans-serif">TypeScript</text>
  </g>

  <!-- Vite icon -->
  <g transform="translate(263, 190)" filter="url(#iconGlow)">
    <polygon points="24,2 46,42 2,42" fill="none" stroke="#646CFF" stroke-width="2.5"/>
    <polygon points="24,12 38,38 10,38" fill="#646CFF" opacity="0.3"/>
    <polygon points="20,10 30,10 24,2" fill="#ffbd2e"/>
    <text x="24" y="62" text-anchor="middle" font-size="9" font-weight="700" fill="#646CFFcc" font-family="'Segoe UI', sans-serif">Vite</text>
  </g>

  <!-- Tailwind icon -->
  <g transform="translate(355, 190)">
    <path d="M24 8 C16 8 12 12 10 16 C12 16 14 15 16 13 C18 11 20 10 24 10 C28 10 30 12 30 14 C30 16 28 18 24 18 C18 18 12 20 10 26 C8 32 12 38 20 40 C24 40 28 38 30 34 C28 34 26 35 24 37 C22 39 20 40 16 38 C14 37 12 34 14 32 C16 30 18 30 24 30 C30 30 36 28 38 22 C40 16 36 8 24 8Z" fill="#06B6D4" opacity="0.9"/>
    <text x="24" y="62" text-anchor="middle" font-size="9" font-weight="700" fill="#06B6D4cc" font-family="'Segoe UI', sans-serif">Tailwind</text>
  </g>

  <!-- Bottom row of client layer -->
  <rect x="80" y="280" width="155" height="28" rx="6" fill="#ffffff08" stroke="#4f8ef720" stroke-width="1"/>
  <text x="158" y="299" text-anchor="middle" font-size="10" fill="#94a3b8" font-family="'Segoe UI', sans-serif">Framer Motion · Lucide Icons</text>

  <rect x="245" y="280" width="155" height="28" rx="6" fill="#ffffff08" stroke="#4f8ef720" stroke-width="1"/>
  <text x="323" y="299" text-anchor="middle" font-size="10" fill="#94a3b8" font-family="'Segoe UI', sans-serif">PWA · Mobile-First Design</text>

  <!-- Role badges -->
  <rect x="80" y="318" width="75" height="20" rx="10" fill="#4f8ef718" stroke="#4f8ef740" stroke-width="1"/>
  <text x="118" y="332" text-anchor="middle" font-size="9" font-weight="600" fill="#4f8ef7" font-family="'Segoe UI', sans-serif">👤 Admin</text>
  <rect x="163" y="318" width="80" height="20" rx="10" fill="#4f8ef718" stroke="#4f8ef740" stroke-width="1"/>
  <text x="203" y="332" text-anchor="middle" font-size="9" font-weight="600" fill="#4f8ef7" font-family="'Segoe UI', sans-serif">👤 Manager</text>
  <rect x="251" y="318" width="75" height="20" rx="10" fill="#4f8ef718" stroke="#4f8ef740" stroke-width="1"/>
  <text x="289" y="332" text-anchor="middle" font-size="9" font-weight="600" fill="#4f8ef7" font-family="'Segoe UI', sans-serif">👤 Picker</text>

  <!-- ============================== -->
  <!-- LAYER 2: VERCEL HOSTING        -->
  <!-- ============================== -->
  <rect x="490" y="120" width="260" height="130" rx="16" fill="url(#vercelGrad)" stroke="#ffffff20" stroke-width="1.5" filter="url(#softShadow)"/>
  <rect x="490" y="120" width="260" height="4" rx="2" fill="#ffffff" opacity="0.7"/>

  <text x="620" y="148" text-anchor="middle" font-size="10" font-weight="700" letter-spacing="3" fill="#ffffffaa" font-family="'Segoe UI', sans-serif">HOSTING · LAYER</text>
  <text x="620" y="168" text-anchor="middle" font-size="17" font-weight="700" fill="#e8eeff" font-family="'Segoe UI', sans-serif">Vercel Edge Network</text>

  <!-- Vercel triangle logo -->
  <g transform="translate(572, 182)" filter="url(#iconGlow)">
    <polygon points="24,0 48,42 0,42" fill="white" opacity="0.95"/>
  </g>
  <text x="620" y="238" text-anchor="middle" font-size="10" fill="#ffffff60" font-family="'Segoe UI', sans-serif">Global CDN · Serverless Functions</text>

  <!-- ============================== -->
  <!-- LAYER 3: FIREBASE SUITE        -->
  <!-- ============================== -->
  <rect x="60" y="430" width="560" height="320" rx="16" fill="url(#firebaseGrad)" stroke="#ff950030" stroke-width="1.5" filter="url(#softShadow)"/>
  <rect x="60" y="430" width="560" height="4" rx="2" fill="#ff9500" opacity="0.8"/>

  <text x="340" y="458" text-anchor="middle" font-size="10" font-weight="700" letter-spacing="3" fill="#ff9500cc" font-family="'Segoe UI', sans-serif">BACKEND · LAYER</text>
  <text x="340" y="478" text-anchor="middle" font-size="17" font-weight="700" fill="#fde8c8" font-family="'Segoe UI', sans-serif">Firebase Suite · Google Cloud</text>

  <!-- Firebase logo (flame) -->
  <g transform="translate(290, 490)" filter="url(#iconGlow)">
    <!-- Flame shape -->
    <path d="M26,0 C26,0 30,10 26,18 C24,22 22,24 22,28 C22,32 26,36 26,36 C22,34 16,28 16,22 C16,18 18,14 20,10 C16,16 12,22 12,28 C12,34 16,40 22,42 C14,40 6,34 6,24 C6,16 12,10 16,6 C14,12 16,18 20,18 C18,14 20,6 26,0Z" fill="#FF9500"/>
    <path d="M26,0 C26,0 22,8 24,16 C25,20 28,22 28,26 C28,30 26,34 26,36 C30,32 34,26 34,20 C34,14 30,8 26,0Z" fill="#FFCA28"/>
  </g>

  <!-- Firebase Auth card -->
  <rect x="80" y="545" width="155" height="80" rx="10" fill="#ffffff08" stroke="#ff950025" stroke-width="1"/>
  <!-- Key icon -->
  <g transform="translate(138, 558)">
    <circle cx="18" cy="12" r="8" fill="none" stroke="#FFCA28" stroke-width="2.5"/>
    <line x1="24" y1="18" x2="36" y2="30" stroke="#FFCA28" stroke-width="2.5" stroke-linecap="round"/>
    <line x1="31" y1="27" x2="35" y2="23" stroke="#FFCA28" stroke-width="2" stroke-linecap="round"/>
  </g>
  <text x="158" y="606" text-anchor="middle" font-size="11" font-weight="700" fill="#FFCA28" font-family="'Segoe UI', sans-serif">Auth</text>
  <text x="158" y="620" text-anchor="middle" font-size="9" fill="#ffffff60" font-family="'Segoe UI', sans-serif">Email / Password</text>

  <!-- Firestore card -->
  <rect x="248" y="545" width="160" height="80" rx="10" fill="#ffffff08" stroke="#ff950025" stroke-width="1"/>
  <!-- Database icon -->
  <g transform="translate(297, 557)">
    <ellipse cx="30" cy="10" rx="25" ry="8" fill="#FF9500" opacity="0.8"/>
    <rect x="5" y="10" width="50" height="16" fill="#FF9500" opacity="0.6"/>
    <ellipse cx="30" cy="26" rx="25" ry="8" fill="#FF9500" opacity="0.7"/>
    <ellipse cx="30" cy="10" rx="25" ry="8" fill="none" stroke="#FF9500" stroke-width="1.5"/>
  </g>
  <text x="328" y="606" text-anchor="middle" font-size="11" font-weight="700" fill="#FF9500" font-family="'Segoe UI', sans-serif">Firestore</text>
  <text x="328" y="620" text-anchor="middle" font-size="9" fill="#ffffff60" font-family="'Segoe UI', sans-serif">Real-time Database</text>

  <!-- Firestore badge - realtime -->
  <rect x="248" y="630" width="160" height="22" rx="6" fill="#ff950015" stroke="#ff950030" stroke-width="1"/>
  <circle cx="263" cy="641" r="4" fill="#4ade80"/>
  <text x="340" y="645" text-anchor="middle" font-size="9" fill="#ff9500cc" font-family="'Segoe UI', sans-serif">Live Sync · No Polling</text>

  <!-- Storage card -->
  <rect x="422" y="545" width="155" height="80" rx="10" fill="#ffffff08" stroke="#ff950025" stroke-width="1"/>
  <g transform="translate(459, 557)">
    <rect x="5" y="2" width="50" height="38" rx="4" fill="none" stroke="#FFA726" stroke-width="2"/>
    <path d="M5,14 L55,14" stroke="#FFA726" stroke-width="1.5"/>
    <rect x="12" y="20" width="30" height="4" rx="2" fill="#FFA726" opacity="0.6"/>
    <rect x="12" y="28" width="20" height="4" rx="2" fill="#FFA726" opacity="0.4"/>
  </g>
  <text x="500" y="606" text-anchor="middle" font-size="11" font-weight="700" fill="#FFA726" font-family="'Segoe UI', sans-serif">Storage</text>
  <text x="500" y="620" text-anchor="middle" font-size="9" fill="#ffffff60" font-family="'Segoe UI', sans-serif">Files &amp; Media</text>

  <!-- Features row -->
  <rect x="80" y="655" width="155" height="20" rx="6" fill="#ff950010" stroke="#ff950020" stroke-width="1"/>
  <text x="158" y="669" text-anchor="middle" font-size="9" fill="#ff9500aa" font-family="'Segoe UI', sans-serif">Role-Based Rules</text>
  <rect x="248" y="655" width="160" height="20" rx="6" fill="#ff950010" stroke="#ff950020" stroke-width="1"/>
  <text x="328" y="669" text-anchor="middle" font-size="9" fill="#ff9500aa" font-family="'Segoe UI', sans-serif">Inventory · Compliance · Tickets</text>
  <rect x="422" y="655" width="155" height="20" rx="6" fill="#ff950010" stroke="#ff950020" stroke-width="1"/>
  <text x="500" y="669" text-anchor="middle" font-size="9" fill="#ff9500aa" font-family="'Segoe UI', sans-serif">Barcode · QR Scans</text>

  <!-- ============================== -->
  <!-- LAYER 4: AI / GEMINI           -->
  <!-- ============================== -->
  <rect x="760" y="430" width="340" height="320" rx="16" fill="url(#aiGrad)" stroke="#a855f730" stroke-width="1.5" filter="url(#softShadow)"/>
  <rect x="760" y="430" width="340" height="4" rx="2" fill="#a855f7" opacity="0.8"/>

  <text x="930" y="458" text-anchor="middle" font-size="10" font-weight="700" letter-spacing="3" fill="#a855f7cc" font-family="'Segoe UI', sans-serif">AI · LAYER</text>
  <text x="930" y="478" text-anchor="middle" font-size="17" font-weight="700" fill="#e8d8ff" font-family="'Segoe UI', sans-serif">Google Gen AI · Gemini</text>

  <!-- Gemini logo (stylized star/sparkle) -->
  <g transform="translate(880, 490)" filter="url(#iconGlow)">
    <!-- Gemini 4-pointed star -->
    <path d="M50,10 C50,10 45,30 50,50 C30,45 10,50 10,50 C10,50 15,30 10,10 C30,15 50,10 50,10Z" fill="url(#geminiGrad1)" opacity="0.95"/>
    <path d="M50,10 C50,10 55,30 50,50 C70,45 90,50 90,50 C90,50 85,30 90,10 C70,15 50,10 50,10Z" fill="url(#geminiGrad2)" opacity="0.85"/>
    <defs>
      <linearGradient id="geminiGrad1" x1="0%" y1="0%" x2="100%" y2="100%">
        <stop offset="0%" style="stop-color:#4285F4"/>
        <stop offset="100%" style="stop-color:#8B5CF6"/>
      </linearGradient>
      <linearGradient id="geminiGrad2" x1="0%" y1="0%" x2="100%" y2="100%">
        <stop offset="0%" style="stop-color:#8B5CF6"/>
        <stop offset="100%" style="stop-color:#EC4899"/>
      </linearGradient>
    </defs>
  </g>

  <!-- Gemini feature cards -->
  <rect x="780" y="570" width="145" height="75" rx="10" fill="#ffffff08" stroke="#a855f725" stroke-width="1"/>
  <text x="852" y="592" text-anchor="middle" font-size="20">🔮</text>
  <text x="852" y="612" text-anchor="middle" font-size="11" font-weight="700" fill="#c084fc" font-family="'Segoe UI', sans-serif">Demand Forecast</text>
  <text x="852" y="627" text-anchor="middle" font-size="9" fill="#ffffff60" font-family="'Segoe UI', sans-serif">Predictive Stock Analysis</text>
  <text x="852" y="640" text-anchor="middle" font-size="9" fill="#ffffff60" font-family="'Segoe UI', sans-serif">Local Context Signals</text>

  <rect x="935" y="570" width="145" height="75" rx="10" fill="#ffffff08" stroke="#a855f725" stroke-width="1"/>
  <text x="1007" y="592" text-anchor="middle" font-size="20">🗺️</text>
  <text x="1007" y="612" text-anchor="middle" font-size="11" font-weight="700" fill="#c084fc" font-family="'Segoe UI', sans-serif">Shelf Slotting</text>
  <text x="1007" y="627" text-anchor="middle" font-size="9" fill="#ffffff60" font-family="'Segoe UI', sans-serif">Pick-Path Optimization</text>
  <text x="1007" y="640" text-anchor="middle" font-size="9" fill="#ffffff60" font-family="'Segoe UI', sans-serif">Zone Assignment AI</text>

  <rect x="780" y="655" width="300" height="22" rx="6" fill="#a855f710" stroke="#a855f730" stroke-width="1"/>
  <text x="930" y="670" text-anchor="middle" font-size="9" fill="#a855f7cc" font-family="'Segoe UI', sans-serif">gemini-2.0-flash-exp · Google Gen AI SDK · REST API</text>

  <rect x="780" y="683" width="300" height="22" rx="6" fill="#a855f710" stroke="#a855f730" stroke-width="1"/>
  <text x="930" y="698" text-anchor="middle" font-size="9" fill="#a855f7cc" font-family="'Segoe UI', sans-serif">Graceful Degradation · No Key = UI Only Mode</text>

  <rect x="780" y="710" width="300" height="22" rx="6" fill="#a855f710" stroke="#a855f730" stroke-width="1"/>
  <text x="930" y="725" text-anchor="middle" font-size="9" fill="#a855f7cc" font-family="'Segoe UI', sans-serif">Prompt Engineering · Structured JSON Output</text>

  <!-- ============================== -->
  <!-- LAYER 5: MONGODB               -->
  <!-- ============================== -->
  <rect x="1120" y="430" width="240" height="320" rx="16" fill="url(#mongoGrad)" stroke="#4ade8030" stroke-width="1.5" filter="url(#softShadow)"/>
  <rect x="1120" y="430" width="240" height="4" rx="2" fill="#4ade80" opacity="0.8"/>

  <text x="1240" y="458" text-anchor="middle" font-size="10" font-weight="700" letter-spacing="3" fill="#4ade80cc" font-family="'Segoe UI', sans-serif">DATABASE · LAYER</text>
  <text x="1240" y="478" text-anchor="middle" font-size="17" font-weight="700" fill="#d8fde8" font-family="'Segoe UI', sans-serif">MongoDB Atlas</text>

  <!-- MongoDB leaf logo -->
  <g transform="translate(1206, 490)" filter="url(#iconGlow)">
    <path d="M34,0 C34,0 28,20 28,36 C28,48 34,60 34,60 C34,60 40,48 40,36 C40,20 34,0 34,0Z" fill="#4ade80" opacity="0.9"/>
    <path d="M34,50 C34,50 20,42 20,42" stroke="#4ade80" stroke-width="3" stroke-linecap="round" opacity="0.7"/>
  </g>

  <!-- Mongo feature cards -->
  <rect x="1140" y="565" width="200" height="60" rx="10" fill="#ffffff08" stroke="#4ade8025" stroke-width="1"/>
  <text x="1240" y="584" text-anchor="middle" font-size="11" font-weight="700" fill="#4ade80" font-family="'Segoe UI', sans-serif">Atlas Cluster</text>
  <text x="1240" y="600" text-anchor="middle" font-size="9" fill="#ffffff60" font-family="'Segoe UI', sans-serif">M0 Free Tier · Global Regions</text>
  <text x="1240" y="615" text-anchor="middle" font-size="9" fill="#ffffff60" font-family="'Segoe UI', sans-serif">Auto-scaling · Backups</text>

  <rect x="1140" y="635" width="200" height="60" rx="10" fill="#ffffff08" stroke="#4ade8025" stroke-width="1"/>
  <text x="1240" y="655" text-anchor="middle" font-size="11" font-weight="700" fill="#4ade80" font-family="'Segoe UI', sans-serif">Collections</text>
  <text x="1240" y="671" text-anchor="middle" font-size="9" fill="#ffffff60" font-family="'Segoe UI', sans-serif">Orders · Users · Inventory</text>
  <text x="1240" y="687" text-anchor="middle" font-size="9" fill="#ffffff60" font-family="'Segoe UI', sans-serif">Audit Logs · Analytics</text>

  <rect x="1140" y="705" width="200" height="22" rx="6" fill="#4ade8010" stroke="#4ade8030" stroke-width="1"/>
  <text x="1240" y="720" text-anchor="middle" font-size="9" fill="#4ade80cc" font-family="'Segoe UI', sans-serif">Vercel Integration · Connection Pooling</text>

  <!-- ============================== -->
  <!-- VERCEL SERVERLESS (right top)  -->
  <!-- ============================== -->
  <rect x="1120" y="120" width="240" height="260" rx="16" fill="url(#vercelGrad)" stroke="#ffffff20" stroke-width="1.5" filter="url(#softShadow)"/>
  <rect x="1120" y="120" width="240" height="4" rx="2" fill="#ffffff" opacity="0.6"/>
  <text x="1240" y="148" text-anchor="middle" font-size="10" font-weight="700" letter-spacing="3" fill="#ffffffaa" font-family="'Segoe UI', sans-serif">SERVERLESS · API</text>
  <text x="1240" y="168" text-anchor="middle" font-size="17" font-weight="700" fill="#e8eeff" font-family="'Segoe UI', sans-serif">API Functions</text>

  <!-- Vercel mini logo -->
  <g transform="translate(1218, 178)" filter="url(#iconGlow)">
    <polygon points="22,0 44,38 0,38" fill="white" opacity="0.9"/>
  </g>

  <rect x="1140" y="230" width="200" height="28" rx="6" fill="#ffffff08" stroke="#ffffff15" stroke-width="1"/>
  <text x="1240" y="249" text-anchor="middle" font-size="10" fill="#ffffff80" font-family="'Segoe UI', sans-serif">/api/inventory</text>
  <rect x="1140" y="265" width="200" height="28" rx="6" fill="#ffffff08" stroke="#ffffff15" stroke-width="1"/>
  <text x="1240" y="284" text-anchor="middle" font-size="10" fill="#ffffff80" font-family="'Segoe UI', sans-serif">/api/pickers</text>
  <rect x="1140" y="300" width="200" height="28" rx="6" fill="#ffffff08" stroke="#ffffff15" stroke-width="1"/>
  <text x="1240" y="319" text-anchor="middle" font-size="10" fill="#ffffff80" font-family="'Segoe UI', sans-serif">/api/compliance</text>
  <rect x="1140" y="335" width="200" height="28" rx="6" fill="#ffffff08" stroke="#ffffff15" stroke-width="1"/>
  <text x="1240" y="354" text-anchor="middle" font-size="10" fill="#ffffff80" font-family="'Segoe UI', sans-serif">/api/ai-forecast</text>

  <!-- ============================== -->
  <!-- ARROWS / DATA FLOW             -->
  <!-- ============================== -->

  <!-- Client → Vercel -->
  <line x1="420" y1="200" x2="488" y2="200" stroke="#4f8ef7" stroke-width="2" stroke-dasharray="6,3" marker-end="url(#arrowBlue)" opacity="0.8"/>
  <rect x="428" y="185" width="52" height="16" rx="4" fill="#0f0f1a"/>
  <text x="454" y="197" text-anchor="middle" font-size="8" fill="#4f8ef7cc" font-family="'Segoe UI', sans-serif">HTTPS</text>

  <!-- Vercel → API Functions -->
  <line x1="1118" y1="185" x2="752" y2="185" stroke="#ffffff" stroke-width="1.5" stroke-dasharray="5,3" marker-end="url(#arrowWhite)" opacity="0.4"/>

  <!-- Client → Firebase (Auth + Firestore) -->
  <path d="M 240 380 L 240 428" stroke="#ff9500" stroke-width="2" stroke-dasharray="6,3" marker-end="url(#arrowOrange)" opacity="0.8"/>
  <rect x="200" y="396" width="80" height="16" rx="4" fill="#0f0f1a"/>
  <text x="240" y="408" text-anchor="middle" font-size="8" fill="#ff9500cc" font-family="'Segoe UI', sans-serif">SDK · WS</text>

  <!-- Client → Gemini AI -->
  <path d="M 420 290 Q 600 340 760 520" stroke="#a855f7" stroke-width="2" stroke-dasharray="6,3" marker-end="url(#arrowPurple)" opacity="0.8"/>
  <rect x="566" y="368" width="80" height="16" rx="4" fill="#0f0f1a"/>
  <text x="606" y="380" text-anchor="middle" font-size="8" fill="#a855f7cc" font-family="'Segoe UI', sans-serif">REST / SDK</text>

  <!-- Vercel → MongoDB -->
  <path d="M 1240 380 L 1240 428" stroke="#4ade80" stroke-width="2" stroke-dasharray="6,3" marker-end="url(#arrowGreen)" opacity="0.8"/>
  <rect x="1198" y="396" width="84" height="16" rx="4" fill="#0f0f1a"/>
  <text x="1240" y="408" text-anchor="middle" font-size="8" fill="#4ade80cc" font-family="'Segoe UI', sans-serif">Driver · Pool</text>

  <!-- Firebase ↔ Vercel API -->
  <path d="M 620 428 L 620 252" stroke="#ff9500" stroke-width="1.5" stroke-dasharray="4,3" marker-end="url(#arrowOrange)" opacity="0.5"/>

  <!-- AI → Vercel (response) -->
  <path d="M 930 428 Q 1000 380 1118 280" stroke="#a855f7" stroke-width="1.5" stroke-dasharray="4,3" marker-end="url(#arrowPurple)" opacity="0.5"/>

  <!-- ============================== -->
  <!-- LEGEND                         -->
  <!-- ============================== -->
  <rect x="490" y="280" width="590" height="130" rx="12" fill="#ffffff05" stroke="#ffffff10" stroke-width="1"/>
  <text x="502" y="302" font-size="9" font-weight="700" letter-spacing="2" fill="#ffffff40" font-family="'Segoe UI', sans-serif">DATA FLOW</text>

  <!-- Legend items -->
  <line x1="502" y1="320" x2="540" y2="320" stroke="#4f8ef7" stroke-width="2" stroke-dasharray="6,3"/>
  <text x="548" y="324" font-size="10" fill="#94a3b8" font-family="'Segoe UI', sans-serif">HTTPS · Client Requests</text>

  <line x1="502" y1="344" x2="540" y2="344" stroke="#ff9500" stroke-width="2" stroke-dasharray="6,3"/>
  <text x="548" y="348" font-size="10" fill="#94a3b8" font-family="'Segoe UI', sans-serif">Firebase SDK · Real-time WebSocket</text>

  <line x1="502" y1="368" x2="540" y2="368" stroke="#a855f7" stroke-width="2" stroke-dasharray="6,3"/>
  <text x="548" y="372" font-size="10" fill="#94a3b8" font-family="'Segoe UI', sans-serif">Gemini AI · REST API Calls</text>

  <line x1="700" y1="320" x2="738" y2="320" stroke="#4ade80" stroke-width="2" stroke-dasharray="6,3"/>
  <text x="746" y="324" font-size="10" fill="#94a3b8" font-family="'Segoe UI', sans-serif">MongoDB Driver · Connection Pool</text>

  <line x1="700" y1="344" x2="738" y2="344" stroke="#ffffff" stroke-width="1.5" stroke-dasharray="5,3" opacity="0.4"/>
  <text x="746" y="348" font-size="10" fill="#94a3b8" font-family="'Segoe UI', sans-serif">Serverless Function Routes</text>

  <!-- Key metrics row -->
  <rect x="700" y="358" width="370" height="40" rx="8" fill="#ffffff05" stroke="#ffffff08" stroke-width="1"/>
  <text x="715" y="373" font-size="9" fill="#4ade80" font-family="'Segoe UI', sans-serif">● Live Sync</text>
  <text x="780" y="373" font-size="9" fill="#ff9500" font-family="'Segoe UI', sans-serif">● Auth Guard</text>
  <text x="850" y="373" font-size="9" fill="#a855f7" font-family="'Segoe UI', sans-serif">● AI Insights</text>
  <text x="920" y="373" font-size="9" fill="#61DAFB" font-family="'Segoe UI', sans-serif">● React 19</text>
  <text x="980" y="373" font-size="9" fill="#ffffff60" font-family="'Segoe UI', sans-serif">● PWA Ready</text>

  <text x="715" y="390" font-size="9" fill="#4ade80" font-family="'Segoe UI', sans-serif">● RBAC: 3 Roles</text>
  <text x="810" y="390" font-size="9" fill="#ff9500" font-family="'Segoe UI', sans-serif">● Firestore Rules</text>
  <text x="910" y="390" font-size="9" fill="#a855f7" font-family="'Segoe UI', sans-serif">● Graceful Fallback</text>
  <text x="1020" y="390" font-size="9" fill="#ffffff60" font-family="'Segoe UI', sans-serif">● Mobile-First</text>

  <!-- ============================== -->
  <!-- FOOTER                         -->
  <!-- ============================== -->
  <line x1="60" y1="858" x2="1340" y2="858" stroke="#ffffff10" stroke-width="1"/>
  <text x="700" y="878" text-anchor="middle" font-size="11" fill="#ffffff30" font-family="'Segoe UI', sans-serif">Developed by Piyush Deshkar · PickPulse v1.0 · pick-pulse-five.vercel.app</text>

</svg>
